<svg width="367" height="535" viewBox="0 0 367 535" fill="none" xmlns="http://www.w3.org/2000/svg">
<g opacity="0.2" clip-path="url(#clip0_44_2672)">
<path opacity="0.95" d="M123.653 240.99C156.12 239.882 290.882 293.908 290.882 293.908C290.882 293.908 160.135 357.573 127.669 358.681C95.2023 359.789 68.2033 334.01 67.0956 301.544C65.9878 269.077 91.1867 242.098 123.653 240.99Z" fill="#AEAEAE"/>
<path d="M352.899 121.145C354.006 153.612 299.981 288.374 299.981 288.374C299.981 288.374 236.316 157.627 235.208 125.161C234.1 92.6945 259.299 65.7152 291.766 64.6075C324.232 63.4997 351.791 88.6789 352.899 121.145Z" fill="#AEAEAE"/>
<path opacity="0.7" d="M364.452 459.724C363.344 427.257 300.258 296.491 300.258 296.491C300.258 296.491 245.653 431.273 246.761 463.739C247.869 496.206 275.428 521.385 307.894 520.277C340.36 519.169 365.559 492.19 364.452 459.724Z" fill="#AEAEAE"/>
</g>
<path d="M244.035 24.7801C241.122 26.4619 237.335 26.1577 234.718 23.7791C234.536 23.6113 234.328 23.4582 234.123 23.3381C233.258 22.8139 232.237 22.6694 231.254 22.9131C230.27 23.1569 229.448 23.7682 228.925 24.633L228.751 24.9212C228.618 25.1342 228.486 25.3472 228.333 25.5548C226.961 27.456 224.933 28.6948 222.616 29.0774C220.304 29.4398 217.977 28.89 216.088 27.5069L215.14 26.809C214.967 26.6869 214.789 26.585 214.611 26.4831C213.669 26.0031 212.6 25.9212 211.602 26.2584C210.597 26.5828 209.793 27.2856 209.315 28.2272C209.114 28.6163 208.885 28.9872 208.641 29.3325C207.396 31.0409 205.566 32.1488 203.483 32.4646C201.399 32.7803 199.319 32.2754 197.61 31.0272L194.546 28.7877C193.66 28.1389 193.465 26.8867 194.112 26.0013C194.76 25.1159 196.011 24.9224 196.896 25.5711L199.961 27.8107C200.799 28.4357 201.832 28.6919 202.86 28.5249C203.896 28.3707 204.801 27.8141 205.424 26.9764C205.546 26.8037 205.66 26.6183 205.755 26.4274C206.704 24.5315 208.345 23.1239 210.355 22.475C212.37 21.806 214.517 21.9828 216.412 22.9353C216.774 23.119 217.145 23.3483 217.49 23.5925L218.451 24.283C219.482 25.0356 220.743 25.3312 222.007 25.1303C223.27 24.9295 224.373 24.242 225.123 23.2114C225.196 23.1013 225.281 22.9837 225.354 22.8735L225.528 22.5853C226.597 20.808 228.286 19.543 230.312 19.0388C232.325 18.542 234.426 18.8472 236.203 19.9193C236.642 20.1777 237.057 20.4839 237.429 20.8323C239.045 22.3044 241.55 22.1885 243.019 20.5727C243.161 20.4055 243.303 20.2382 243.43 20.0454L245.321 17.0944C245.913 16.1726 247.153 15.9004 248.075 16.494C248.997 17.0876 249.283 18.3212 248.678 19.2504L246.788 22.2014C246.546 22.5796 246.277 22.9397 245.973 23.2688C245.368 23.8738 244.725 24.3818 244.035 24.7801Z" fill="#FFCE5C"/>
<path d="M9.63341 112.294C4.3225 112.294 -3.0418e-08 107.966 -1.9608e-08 102.647C-8.7981e-09 97.3286 4.3225 93 9.63341 93C14.9443 93 19.2668 97.3286 19.2668 102.647C19.2816 107.951 14.9443 112.294 9.63341 112.294ZM9.63341 96.9741C6.52063 96.9741 3.98319 99.5151 3.98319 102.632C3.98319 105.75 6.52063 108.291 9.63341 108.291C12.7462 108.291 15.2836 105.75 15.2836 102.632C15.2836 99.5151 12.7462 96.9741 9.63341 96.9741Z" fill="#C2B1FF"/>
<path d="M31.1736 285.965C30.5983 285.965 30.0377 285.728 29.6394 285.256C28.9313 284.413 29.0345 283.143 29.8902 282.449L61.0918 256.226C62.6261 254.94 63.5555 253.138 63.7325 251.144C63.9095 249.149 63.2899 247.214 62.0065 245.677C60.723 244.141 58.9232 243.21 56.9316 243.033C54.94 242.856 53.0074 243.476 51.4731 244.761L20.2715 270.984C19.4306 271.694 18.1766 271.59 17.4685 270.733C16.7604 269.891 16.8637 268.621 17.7193 267.926L48.921 241.688C51.2666 239.724 54.2319 238.778 57.2856 239.044C60.3394 239.31 63.0982 240.758 65.0602 243.092C67.0223 245.441 67.9665 248.41 67.7009 251.469C67.4354 254.527 65.9897 257.289 63.644 259.254L32.4424 285.492C32.0735 285.817 31.6162 285.965 31.1736 285.965Z" fill="#7D944D"/>
<path d="M275.964 311.642C269.37 311.642 264 306.117 264 299.321C264 292.525 269.37 287 275.964 287C277.071 287 277.956 287.901 277.956 288.994C277.956 290.102 277.056 290.989 275.964 290.989C271.568 290.989 267.983 294.727 267.983 299.306C267.983 303.901 271.568 307.624 275.964 307.624C277.071 307.624 277.956 308.525 277.956 309.618C277.956 310.711 277.071 311.642 275.964 311.642Z" fill="#FFCE5C"/>
<defs>
<clipPath id="clip0_44_2672">
<rect width="462.335" height="291.787" fill="white" transform="translate(75.0264 534.016) rotate(-91.9542)"/>
</clipPath>
</defs>
</svg>
