<svg width="17" height="19" viewBox="0 0 17 19" fill="none" xmlns="http://www.w3.org/2000/svg">
<path d="M17 0V8C17 10.7614 14.7614 13 12 13H2.10102C2.20823 13.5252 2.39966 14.032 2.66987 14.5C3.10871 15.2601 3.7399 15.8913 4.5 16.3301L3.5 18.0622C2.43587 17.4478 1.5522 16.5641 0.937822 15.5C0.323444 14.4359 0 13.2288 0 12C0 10.7712 0.323444 9.56413 0.937823 8.5C1.5522 7.43586 2.43587 6.5522 3.5 5.93782L4.5 7.66987C3.7399 8.10871 3.10872 8.7399 2.66987 9.5C2.39966 9.96802 2.20823 10.4748 2.10102 11H12C13.6569 11 15 9.65685 15 8V0H17Z" fill="white"/>
</svg>
