<svg width="25" height="25" viewBox="0 0 25 25" fill="none" xmlns="http://www.w3.org/2000/svg">
<path d="M13.5 22.5L13.5 6.5" stroke="#AFAFAF" stroke-width="2" stroke-linejoin="round"/>
<path d="M9.5 8.5V8.5C11.7091 8.5 13.5 10.2909 13.5 12.5V12.5" stroke="#AFAFAF" stroke-width="2" stroke-linejoin="round"/>
<path d="M16.5 11.5C16.5 12.2956 16.1839 13.0587 15.6213 13.6213C15.0587 14.1839 14.2956 14.5 13.5 14.5C12.7044 14.5 11.9413 14.1839 11.3787 13.6213C10.8161 13.0587 10.5 12.2956 10.5 11.5" stroke="#AFAFAF" stroke-width="2" stroke-linejoin="round"/>
<path d="M17.5325 22.5V18.2963C17.5325 16.9955 18.2297 15.8218 19.0277 14.7947C19.336 14.398 19.6018 13.9676 19.8196 13.5105C20.3365 12.4253 20.5653 11.2254 20.4839 10.0262C20.4026 8.82696 20.0138 7.66891 19.355 6.66354C18.6963 5.65817 17.7898 4.83937 16.7228 4.28599C15.6557 3.73262 14.4642 3.46331 13.263 3.50402C12.0617 3.54472 10.8911 3.89406 9.86402 4.51839C8.83692 5.14273 7.98789 6.02101 7.39869 7.06867C6.8095 8.11632 6.5 9.29803 6.5 10.5L4.5 14.5H6.5V17.5H9.5V22.5" stroke="#AFAFAF" stroke-width="2" stroke-linejoin="round"/>
<path d="M16.5 11.5V9.5" stroke="#AFAFAF" stroke-width="2" stroke-linejoin="round"/>
</svg>
