<svg width="65" height="42" viewBox="0 0 65 42" fill="none" xmlns="http://www.w3.org/2000/svg">
<path opacity="0.95" d="M40.5045 8.3005C40.5045 12.9028 32.204 31.7227 32.204 31.7227C32.204 31.7227 23.8213 12.9028 23.8213 8.3005C23.8213 3.69824 27.6017 0 32.204 0C36.8062 0 40.5045 3.69824 40.5045 8.3005Z" fill="white"/>
<path d="M56.3656 41.338C51.7633 41.338 32.9434 33.0375 32.9434 33.0375C32.9434 33.0375 51.7633 24.6548 56.3656 24.6548C60.9678 24.6548 64.6661 28.353 64.6661 32.9553C64.6661 37.5575 60.9678 41.338 56.3656 41.338Z" fill="#FBD958"/>
<path opacity="0.7" d="M8.37082 41.338C12.9731 41.338 31.793 33.0375 31.793 33.0375C31.793 33.0375 12.9731 24.6548 8.37082 24.6548C3.76856 24.6548 0.0703125 28.4352 0.0703125 33.0375C0.0703125 37.6397 3.76856 41.338 8.37082 41.338Z" fill="black"/>
</svg>
