<svg width="25" height="24" viewBox="0 0 25 24" fill="none" xmlns="http://www.w3.org/2000/svg">
<path d="M10.6835 2.93721C11.3984 1.38747 13.6009 1.38747 14.3158 2.93721L15.6985 5.93503C15.9899 6.56664 16.5884 7.00153 17.2792 7.08343L20.5576 7.47213C22.2523 7.67308 22.933 9.76785 21.68 10.9266L19.2562 13.1681C18.7455 13.6403 18.5169 14.344 18.6524 15.0262L19.2958 18.2642C19.6284 19.9382 17.8465 21.2328 16.3573 20.3992L13.4765 18.7867C12.8696 18.447 12.1297 18.447 11.5228 18.7867L8.64202 20.3992C7.1528 21.2328 5.37088 19.9382 5.70349 18.2642L6.34688 15.0262C6.48244 14.344 6.25381 13.6403 5.74314 13.1681L3.31933 10.9266C2.06634 9.76785 2.74697 7.67308 4.44176 7.47213L7.72015 7.08343C8.41088 7.00153 9.00945 6.56664 9.30078 5.93503L10.6835 2.93721Z" fill="white" stroke="white" stroke-width="2" stroke-linejoin="round"/>
</svg>
