<svg width="68" height="68" viewBox="0 0 68 68" fill="none" xmlns="http://www.w3.org/2000/svg">
<rect width="67.2" height="67.2" rx="33.6" fill="#C6FCDB"/>
<path fill-rule="evenodd" clip-rule="evenodd" d="M44.3857 23.0393C45.4048 22.6172 46.4971 22.3999 47.6002 22.3999C48.7033 22.3999 49.7956 22.6172 50.8147 23.0393C51.8339 23.4615 52.7599 24.0802 53.5399 24.8602C54.3199 25.6402 54.9386 26.5662 55.3608 27.5854C55.7829 28.6045 56.0002 29.6968 56.0002 30.7999C56.0002 32.3463 54.7466 33.5999 53.2002 33.5999C51.6538 33.5999 50.4002 32.3463 50.4002 30.7999C50.4002 30.4322 50.3278 30.0681 50.1871 29.7284C50.0463 29.3887 49.8401 29.08 49.5801 28.82C49.3201 28.56 49.0114 28.3538 48.6717 28.213C48.332 28.0723 47.9679 27.9999 47.6002 27.9999C47.2325 27.9999 46.8684 28.0723 46.5287 28.213C46.189 28.3538 45.8803 28.56 45.6203 28.82C45.3603 29.08 45.154 29.3887 45.0133 29.7284C44.8726 30.0681 44.8002 30.4322 44.8002 30.7999C44.8002 32.3463 43.5466 33.5999 42.0002 33.5999C40.4538 33.5999 39.2002 32.3463 39.2002 30.7999C39.2002 29.6968 39.4175 28.6045 39.8396 27.5854C40.2617 26.5662 40.8805 25.6402 41.6605 24.8602C42.4405 24.0802 43.3665 23.4615 44.3857 23.0393Z" fill="#153A24"/>
<path fill-rule="evenodd" clip-rule="evenodd" d="M47.8467 40.1191C49.3404 40.5193 50.2268 42.0546 49.8266 43.5483C48.8694 47.1206 46.7603 50.2772 43.8262 52.5285C40.8922 54.7799 37.2973 56.0002 33.5991 56.0002C29.9008 56.0002 26.3059 54.7799 23.3719 52.5285C20.4378 50.2772 18.3287 47.1206 17.3715 43.5483C16.9713 42.0546 17.8577 40.5193 19.3514 40.1191C20.8451 39.7188 22.3804 40.6052 22.7807 42.099C23.4188 44.4804 24.8249 46.5848 26.7809 48.0857C28.7369 49.5866 31.1335 50.4002 33.5991 50.4002C36.0646 50.4002 38.4612 49.5866 40.4172 48.0857C42.3732 46.5848 43.7793 44.4804 44.4174 42.099C44.8177 40.6052 46.353 39.7188 47.8467 40.1191Z" fill="#153A24"/>
<path fill-rule="evenodd" clip-rule="evenodd" d="M16.3857 23.0393C17.4048 22.6172 18.4971 22.3999 19.6002 22.3999C20.7033 22.3999 21.7956 22.6172 22.8147 23.0393C23.8339 23.4615 24.7599 24.0802 25.5399 24.8602C26.3199 25.6402 26.9386 26.5662 27.3608 27.5854C27.7829 28.6045 28.0002 29.6968 28.0002 30.7999C28.0002 32.3463 26.7466 33.5999 25.2002 33.5999C23.6538 33.5999 22.4002 32.3463 22.4002 30.7999C22.4002 30.4322 22.3278 30.0681 22.1871 29.7284C22.0463 29.3887 21.8401 29.08 21.5801 28.82C21.3201 28.56 21.0114 28.3538 20.6717 28.213C20.332 28.0723 19.9679 27.9999 19.6002 27.9999C19.2325 27.9999 18.8684 28.0723 18.5287 28.213C18.189 28.3538 17.8803 28.56 17.6203 28.82C17.3603 29.08 17.154 29.3887 17.0133 29.7284C16.8726 30.0681 16.8002 30.4322 16.8002 30.7999C16.8002 32.3463 15.5466 33.5999 14.0002 33.5999C12.4538 33.5999 11.2002 32.3463 11.2002 30.7999C11.2002 29.6968 11.4175 28.6045 11.8396 27.5854C12.2617 26.5662 12.8805 25.6402 13.6605 24.8602C14.4405 24.0802 15.3665 23.4615 16.3857 23.0393Z" fill="#153A24"/>
</svg>
