<svg width="68" height="68" viewBox="0 0 68 68" fill="none" xmlns="http://www.w3.org/2000/svg">
<rect x="0.200195" width="67.2" height="67.2" rx="33.6" fill="#FFCE5C"/>
<path fill-rule="evenodd" clip-rule="evenodd" d="M50.5998 19.6001C52.1462 19.6001 53.3998 20.8537 53.3998 22.4001L53.3998 30.8001C53.3998 32.3465 52.1462 33.6001 50.5998 33.6001C49.0534 33.6001 47.7998 32.3465 47.7998 30.8001L47.7998 22.4001C47.7998 20.8537 49.0534 19.6001 50.5998 19.6001Z" fill="#705600"/>
<path fill-rule="evenodd" clip-rule="evenodd" d="M17.0002 19.6001C18.5466 19.6001 19.8002 20.8537 19.8002 22.4001L19.8002 30.8001C19.8002 32.3465 18.5466 33.6001 17.0002 33.6001C15.4538 33.6001 14.2002 32.3465 14.2002 30.8001L14.2002 22.4001C14.2002 20.8537 15.4538 19.6001 17.0002 19.6001Z" fill="#705600"/>
<path fill-rule="evenodd" clip-rule="evenodd" d="M48.0469 40.1191C49.5406 40.5193 50.427 42.0546 50.0268 43.5483C49.0696 47.1206 46.9605 50.2772 44.0264 52.5285C41.0924 54.7799 37.4975 56.0002 33.7992 56.0002C30.101 56.0002 26.5061 54.7799 23.5721 52.5285C20.638 50.2772 18.5289 47.1206 17.5717 43.5483C17.1715 42.0546 18.0579 40.5193 19.5516 40.1191C21.0453 39.7188 22.5806 40.6052 22.9809 42.099C23.619 44.4804 25.0251 46.5848 26.9811 48.0857C28.9371 49.5866 31.3337 50.4002 33.7992 50.4002C36.2648 50.4002 38.6614 49.5866 40.6174 48.0857C42.5734 46.5848 43.9795 44.4804 44.6176 42.099C45.0179 40.6052 46.5532 39.7188 48.0469 40.1191Z" fill="#705600"/>
</svg>
