<svg width="68" height="68" viewBox="0 0 68 68" fill="none" xmlns="http://www.w3.org/2000/svg">
<rect x="0.599609" width="67.2" height="67.2" rx="33.6" fill="#ED7E1C"/>
<path fill-rule="evenodd" clip-rule="evenodd" d="M23.9715 39.8716C26.9055 37.6202 30.5004 36.3999 34.1987 36.3999C37.8969 36.3999 41.4918 37.6202 44.4259 39.8716C47.3599 42.1229 49.469 45.2795 50.4262 48.8517C50.8265 50.3455 49.94 51.8808 48.4463 52.281C46.9526 52.6813 45.4173 51.7948 45.017 50.3011C44.3789 47.9196 42.9728 45.8153 41.0168 44.3143C39.0608 42.8134 36.6642 41.9999 34.1987 41.9999C31.7332 41.9999 29.3365 42.8134 27.3805 44.3143C25.4245 45.8152 24.0184 47.9196 23.3803 50.3011C22.9801 51.7948 21.4447 52.6813 19.951 52.281C18.4573 51.8808 17.5709 50.3454 17.9711 48.8517C18.9283 45.2795 21.0374 42.1229 23.9715 39.8716Z" fill="#663600"/>
<path fill-rule="evenodd" clip-rule="evenodd" d="M17.3996 19.6001C18.946 19.6001 20.1996 20.8537 20.1996 22.4001V30.8001C20.1996 32.3465 18.946 33.6001 17.3996 33.6001C15.8532 33.6001 14.5996 32.3465 14.5996 30.8001V22.4001C14.5996 20.8537 15.8532 19.6001 17.3996 19.6001Z" fill="#663600"/>
<path fill-rule="evenodd" clip-rule="evenodd" d="M50.9992 19.6001C52.5456 19.6001 53.7992 20.8537 53.7992 22.4001V30.8001C53.7992 32.3465 52.5456 33.6001 50.9992 33.6001C49.4528 33.6001 48.1992 32.3465 48.1992 30.8001V22.4001C48.1992 20.8537 49.4528 19.6001 50.9992 19.6001Z" fill="#663600"/>
</svg>
