<svg width="14" height="14" viewBox="0 0 14 14" fill="none" xmlns="http://www.w3.org/2000/svg">
<path d="M1.75 5.8335V5.8335C3.03866 5.8335 4.08333 6.87817 4.08333 8.16683V8.16683" stroke="#75DAFF" stroke-width="1.3125" stroke-linejoin="round"/>
<path d="M1.75 3.5C1.75 3.87135 1.75 4.50746 1.75 5.24942C1.75 8.14892 4.10051 10.5 7 10.5H8.16667C10.4218 10.5 12.25 8.67183 12.25 6.41667V6.41667" stroke="#75DAFF" stroke-width="1.3125" stroke-linejoin="round"/>
<path d="M1.75 8.16699H12.25" stroke="#75DAFF" stroke-width="1.3125" stroke-linejoin="round"/>
<path d="M8.16699 1.75V6.41667" stroke="#75DAFF" stroke-width="1.3125" stroke-linejoin="round"/>
<path d="M10.5 4.0835L5.83333 4.0835" stroke="#75DAFF" stroke-width="1.3125" stroke-linejoin="round"/>
<path d="M1.75 12.8335C1.75 12.3694 1.93437 11.9242 2.26256 11.5961C2.59075 11.2679 3.03587 11.0835 3.5 11.0835C3.96413 11.0835 4.40925 11.2679 4.73744 11.5961C5.06562 11.9242 5.25 12.3694 5.25 12.8335" stroke="#75DAFF" stroke-width="1.4875" stroke-linejoin="round"/>
<path d="M8.75 12.8335C8.75 12.3694 8.93437 11.9242 9.26256 11.5961C9.59075 11.2679 10.0359 11.0835 10.5 11.0835C10.9641 11.0835 11.4092 11.2679 11.7374 11.5961C12.0656 11.9242 12.25 12.3694 12.25 12.8335" stroke="#75DAFF" stroke-width="1.3125" stroke-linejoin="round"/>
</svg>
