<svg width="68" height="68" viewBox="0 0 68 68" fill="none" xmlns="http://www.w3.org/2000/svg">
<rect x="0.799805" width="67.2" height="67.2" rx="33.6" fill="#A694F5"/>
<path fill-rule="evenodd" clip-rule="evenodd" d="M43.6199 17.6199C44.7134 16.5264 46.4862 16.5264 47.5797 17.6199L55.9797 26.0199C57.0732 27.1134 57.0732 28.8862 55.9797 29.9797C54.8862 31.0732 53.1134 31.0732 52.0199 29.9797L43.6199 21.5797C42.5264 20.4862 42.5264 18.7134 43.6199 17.6199Z" fill="#3C357C"/>
<path fill-rule="evenodd" clip-rule="evenodd" d="M55.9797 17.6199C57.0732 18.7134 57.0732 20.4862 55.9797 21.5797L47.5797 29.9797C46.4862 31.0732 44.7134 31.0732 43.6199 29.9797C42.5264 28.8862 42.5264 27.1134 43.6199 26.0199L52.0199 17.6199C53.1134 16.5264 54.8862 16.5264 55.9797 17.6199Z" fill="#3C357C"/>
<path fill-rule="evenodd" clip-rule="evenodd" d="M12.8201 17.6199C13.9136 16.5264 15.6864 16.5264 16.7799 17.6199L25.1799 26.0199C26.2734 27.1134 26.2734 28.8862 25.1799 29.9797C24.0864 31.0732 22.3136 31.0732 21.2201 29.9797L12.8201 21.5797C11.7266 20.4862 11.7266 18.7134 12.8201 17.6199Z" fill="#3C357C"/>
<path fill-rule="evenodd" clip-rule="evenodd" d="M25.1799 17.6199C26.2734 18.7134 26.2734 20.4862 25.1799 21.5797L16.7799 29.9797C15.6864 31.0732 13.9136 31.0732 12.8201 29.9797C11.7266 28.8862 11.7266 27.1134 12.8201 26.0199L21.2201 17.6199C22.3136 16.5264 24.0864 16.5264 25.1799 17.6199Z" fill="#3C357C"/>
<path fill-rule="evenodd" clip-rule="evenodd" d="M24.1717 39.8716C27.1057 37.6202 30.7006 36.3999 34.3989 36.3999C38.0971 36.3999 41.692 37.6202 44.6261 39.8716C47.5601 42.1229 49.6692 45.2795 50.6264 48.8517C51.0266 50.3455 50.1402 51.8808 48.6465 52.281C47.1528 52.6813 45.6175 51.7948 45.2172 50.3011C44.5791 47.9196 43.173 45.8153 41.217 44.3143C39.261 42.8134 36.8644 41.9999 34.3989 41.9999C31.9334 41.9999 29.5367 42.8134 27.5807 44.3143C25.6247 45.8152 24.2186 47.9196 23.5805 50.3011C23.1802 51.7948 21.6449 52.6813 20.1512 52.281C18.6575 51.8808 17.7711 50.3454 18.1713 48.8517C19.1285 45.2795 21.2376 42.1229 24.1717 39.8716Z" fill="#3C357C"/>
</svg>
