<svg width="68" height="68" viewBox="0 0 68 68" fill="none" xmlns="http://www.w3.org/2000/svg">
<rect x="0.400391" width="67.2" height="67.2" rx="33.6" fill="#C0A091"/>
<path fill-rule="evenodd" clip-rule="evenodd" d="M50.801 19.6011C52.3474 19.6011 53.601 20.8547 53.601 22.4011L53.601 30.8011C53.601 32.3475 52.3474 33.6011 50.801 33.6011C49.2546 33.6011 48.001 32.3475 48.001 30.8011L48.001 22.4011C48.001 20.8547 49.2546 19.6011 50.801 19.6011Z" fill="#4F3422"/>
<path fill-rule="evenodd" clip-rule="evenodd" d="M17.2004 19.6011C18.7468 19.6011 20.0004 20.8547 20.0004 22.4011L20.0004 30.8011C20.0004 32.3475 18.7468 33.6011 17.2004 33.6011C15.654 33.6011 14.4004 32.3475 14.4004 30.8011L14.4004 22.4011C14.4004 20.8547 15.654 19.6011 17.2004 19.6011Z" fill="#4F3422"/>
<path fill-rule="evenodd" clip-rule="evenodd" d="M14.4004 44.8C14.4004 43.2536 15.654 42 17.2004 42H50.8004C52.3468 42 53.6004 43.2536 53.6004 44.8C53.6004 46.3464 52.3468 47.6 50.8004 47.6H17.2004C15.654 47.6 14.4004 46.3464 14.4004 44.8Z" fill="#4F3422"/>
</svg>
