<svg width="16" height="16" viewBox="0 0 16 16" fill="none" xmlns="http://www.w3.org/2000/svg">
<path d="M11.3544 14.6667V12.1408C11.3544 11.1002 11.9257 10.1646 12.5143 9.30645C12.6518 9.10607 12.7738 8.89456 12.8791 8.67365C13.2237 7.95023 13.3762 7.15025 13.322 6.35078C13.2677 5.55131 13.0086 4.77927 12.5694 4.10903C12.1302 3.43878 11.5259 2.89291 10.8145 2.524C10.1032 2.15508 9.30883 1.97554 8.50798 2.00268C7.70713 2.02981 6.92676 2.26271 6.24203 2.67893C5.5573 3.09515 4.99127 3.68068 4.59848 4.37911C4.20568 5.07754 3.99935 5.86536 3.99935 6.66667L2.66602 9.33333H3.99935V11.3333H5.99935V14.6667" stroke="#C9A7FF" stroke-width="1.2" stroke-linejoin="round"/>
<path d="M11.0007 7.66699L8.8634 9.80425C8.75511 9.91254 8.57953 9.91254 8.47124 9.80425L6.33398 7.66699C5.7817 7.11471 5.7817 6.21928 6.33398 5.66699C6.88627 5.11471 7.7817 5.11471 8.33398 5.66699L8.66732 6.00033L9.00065 5.66699C9.55294 5.11471 10.4484 5.11471 11.0007 5.66699C11.5529 6.21928 11.5529 7.11471 11.0007 7.66699Z" fill="#C9A7FF" stroke="#C9A7FF" stroke-width="1.6" stroke-linejoin="round"/>
</svg>
