<svg width="308" height="473" viewBox="0 0 308 473" fill="none" xmlns="http://www.w3.org/2000/svg">
<g opacity="0.2" clip-path="url(#clip0_28_2658)">
<path opacity="0.95" d="M64.6531 178.99C97.1195 177.882 231.882 231.908 231.882 231.908C231.882 231.908 101.135 295.573 68.6687 296.681C36.2023 297.789 9.20334 272.01 8.09559 239.544C6.98783 207.077 32.1867 180.098 64.6531 178.99Z" fill="#AEAEAE"/>
<path d="M293.899 59.1452C295.006 91.6116 240.981 226.374 240.981 226.374C240.981 226.374 177.316 95.6272 176.208 63.1608C175.1 30.6945 200.299 3.71524 232.766 2.60748C265.232 1.49973 292.791 26.6789 293.899 59.1452Z" fill="#AEAEAE"/>
<path opacity="0.7" d="M305.452 397.724C304.344 365.257 241.258 234.491 241.258 234.491C241.258 234.491 186.653 369.273 187.761 401.739C188.869 434.206 216.428 459.385 248.894 458.277C281.36 457.169 306.559 430.19 305.452 397.724Z" fill="#AEAEAE"/>
</g>
<defs>
<clipPath id="clip0_28_2658">
<rect width="462.335" height="291.787" fill="white" transform="translate(16.0264 472.016) rotate(-91.9542)"/>
</clipPath>
</defs>
</svg>
